<?xml version="1.0" standalone="no"?>
<!DOCTYPE svg PUBLIC "-//W3C//DTD SVG 1.1//EN" "http://www.w3.org/Graphics/SVG/1.1/DTD/svg11.dtd" >
<svg xmlns="http://www.w3.org/2000/svg" xmlns:xlink="http://www.w3.org/1999/xlink" version="1.1">
<metadata>
Created by FontForge 20230101 at Sun Aug  2 18:48:57 2020
 By Unknown
Copyright (c) 2018 by Connary Fagen. All rights reserved.
</metadata>
<defs>
<font id="VentiCFDEMO-Black" horiz-adv-x="618" >
  <font-face 
    font-family="Venti CF DEMO Black"
    font-weight="900"
    font-stretch="normal"
    units-per-em="1000"
    panose-1="0 0 10 0 0 0 0 0 0 0"
    ascent="800"
    descent="-200"
    x-height="510"
    cap-height="780"
    bbox="-8 -318.054 1204.88 810"
    underline-thickness="50"
    underline-position="-100"
    unicode-range="U+0020-FB01"
  />
<missing-glyph horiz-adv-x="500" 
d="M93 800h317v-1000h-317v1000zM333 700v33h-165v-33h65v-37h-66v-33h166v33h-66v37h66zM267 534v70h-100v-104h166v34h-66zM200 570h33v-36h-33v36zM333 440v33h-166v-33h66v-37h-66v-33h100v70h66zM333 313v100h-33v-66h-133v-34h166zM333 178v113h-100v-56h34v23h33v-47
h-100v80h-33v-113h166zM333 5v113h-166v-113h166zM200 85h100v-47h-100v47zM333 -51v33h-166v-33h70l-70 -47v-33h166v33h-102l70 47h32z" />
    <glyph glyph-name="fi" unicode="fi" horiz-adv-x="701" 
d="M557 510v-164h-275v-327q0 -19 -19 -19h-144q-19 0 -19 19v327h-55q-6 0 -10.5 4.5t-4.5 10.5v135q0 14 15 14h55v95q0 95 56.5 147.5t145.5 52.5q98 0 155 -46q14 -13 5 -30l-50 -89q-10 -18 -26 -10q-24 13 -46 13q-23 0 -40.5 -15t-17.5 -46v-72h275z" />
    <glyph glyph-name="f_f" unicode="ff" horiz-adv-x="794" 
d="M816 759q14 -13 5 -30l-50 -89q-10 -19 -26 -10q-24 13 -46 13q-23 0 -40.5 -15t-17.5 -46v-72h96q5 0 9.5 -4t4.5 -10v-135q0 -6 -4.5 -10.5t-9.5 -4.5h-96v-327q0 -19 -19 -19h-145q-19 0 -19 19v327h-176v-327q0 -19 -19 -19h-144q-19 0 -19 19v327h-55
q-6 0 -10.5 4.5t-4.5 10.5v135q0 14 15 14h55v77q0 106 63 164.5t168 58.5q102 0 176 -66q56 61 154 61q97 0 155 -46zM282 510h176v95v4q-33 39 -81 39q-41 0 -68 -25.5t-27 -84.5v-28z" />
    <glyph glyph-name="f_f_i" unicode="ffi" horiz-adv-x="1060" 
d="M916 510v-164h-275v-327q0 -19 -19 -19h-145q-19 0 -19 19v327h-176v-327q0 -19 -19 -19h-144q-19 0 -19 19v327h-55q-6 0 -10.5 4.5t-4.5 10.5v135q0 14 15 14h55v77q0 106 63 164.5t168 58.5q102 0 176 -66q56 61 154 61q97 0 155 -46q14 -13 5 -30l-50 -89
q-10 -19 -26 -10q-24 13 -46 13q-23 0 -40.5 -15t-17.5 -46v-72h275zM282 510h176v95v4q-33 39 -81 39q-41 0 -68 -25.5t-27 -84.5v-28z" />
    <glyph glyph-name="f_j.liga" unicode="fj" horiz-adv-x="696" 
d="M563 510v-164h-281v-327q0 -19 -19 -19h-144q-19 0 -19 19v327h-55q-6 0 -10.5 4.5t-4.5 10.5v135q0 14 15 14h55v95q0 95 56.5 147.5t145.5 52.5q98 0 155 -46q14 -13 5 -30l-50 -89q-10 -18 -26 -10q-24 13 -46 13q-23 0 -40.5 -15t-17.5 -46v-72h281z" />
    <glyph glyph-name=".notdef" horiz-adv-x="500" 
d="M93 800h317v-1000h-317v1000zM333 700v33h-165v-33h65v-37h-66v-33h166v33h-66v37h66zM267 534v70h-100v-104h166v34h-66zM200 570h33v-36h-33v36zM333 440v33h-166v-33h66v-37h-66v-33h100v70h66zM333 313v100h-33v-66h-133v-34h166zM333 178v113h-100v-56h34v23h33v-47
h-100v80h-33v-113h166zM333 5v113h-166v-113h166zM200 85h100v-47h-100v47zM333 -51v33h-166v-33h70l-70 -47v-33h166v33h-102l70 47h32z" />
    <glyph glyph-name=".null" horiz-adv-x="0" 
 />
    <glyph glyph-name="nonmarkingreturn" horiz-adv-x="333" 
 />
    <glyph glyph-name="space" unicode=" " horiz-adv-x="600" 
 />
    <glyph glyph-name="zero" unicode="0" horiz-adv-x="710" 
d="M355 -12q-148 0 -231.5 113t-83.5 286q0 111 35.5 200.5t108 144.5t171.5 55t171.5 -55t108 -144.5t35.5 -200.5q0 -173 -83.5 -286t-231.5 -113zM356 156q63 0 95 64t32 167t-32 167.5t-95 64.5t-96 -64.5t-33 -167.5q0 -102 33 -166.5t96 -64.5z" />
    <glyph glyph-name="one" unicode="1" horiz-adv-x="400" 
d="M192 780h138q8 0 14 -5.5t6 -13.5v-741q0 -8 -5.5 -14t-13.5 -6h-148q-20 0 -20 20v515q-47 -12 -100 -14q-21 -2 -22 15l-11 103q-1 17 18 23q42 15 71.5 40t55.5 70q5 8 17 8z" />
    <glyph glyph-name="two" unicode="2" 
d="M338 164h220q20 0 20 -19v-125q0 -8 -6 -14t-14 -6h-479q-8 0 -14.5 6t-6.5 14v37l254 326q70 88 70 140q0 35 -23.5 62.5t-61.5 27.5q-29 0 -56.5 -17t-40.5 -32t-33 -43q-12 -13 -29 0l-92 83q-12 14 -2 27q56 77 119 116.5t146 39.5q110 0 183 -65.5t73 -172.5
q0 -93 -67 -180z" />
    <glyph glyph-name="three" unicode="3" horiz-adv-x="634" 
d="M528 606l-138 -139q100 -11 149.5 -72t49.5 -146q0 -115 -82 -187t-198 -72q-75 0 -142 33t-115 100q-12 15 1 26l97 93q15 15 27 -2q52 -77 128 -77q46 0 72.5 26t26.5 64q0 37 -23 61t-63 24q-10 0 -49 -7q-12 0 -18 9l-64 88q-12 16 1 29l158 159h-235q-8 0 -14 5.5
t-6 13.5v125q0 20 20 20h412q20 0 20 -20v-119q0 -20 -15 -35z" />
    <glyph glyph-name="four" unicode="4" horiz-adv-x="678" 
d="M139 143q-23 0 -36 2v143q26 4 37 4q33 0 47 -18t14 -57t-14.5 -56.5t-47.5 -17.5zM522 143q-29 0 -41 17.5t-12 56.5t12 57t41 18t41.5 -18t12.5 -57t-12.5 -56.5t-41.5 -17.5zM300 145h-76v145h76v-25h-47v-34h40v-24h-40v-38h47v-24zM347 145h-28q2 84 7 145h39
l19 -80l19 80h40q1 -21 3.5 -78.5t2.5 -66.5h-29q0 53 -3 104l-20 -82h-27l-20 82h-1q-2 -68 -2 -104zM141 167q18 0 24.5 12t6.5 38t-6.5 38t-24.5 12q-6 0 -9 -1v-98q2 -1 9 -1zM522 167q15 0 20 12t5 38q0 27 -5 38.5t-20 11.5q-14 0 -19 -11.5t-5 -38.5q0 -50 24 -50z
" />
    <glyph glyph-name="five" unicode="5" horiz-adv-x="626" 
d="M258 616v-119q35 20 87 20q108 0 174 -75.5t66 -184.5q0 -119 -78.5 -193t-196.5 -74q-157 0 -263 131q-12 14 1 27l99 103q14 17 28 0q65 -76 132 -76q38 0 62 23.5t24 58.5q0 33 -24.5 56t-57.5 23q-34 0 -59 -23l-153 41q-23 5 -23 24v379q0 23 21 23h418q22 0 22 -21
v-123q0 -8 -6 -14t-16 -6h-257z" />
    <glyph glyph-name="six" unicode="6" 
d="M332 487q114 0 182.5 -68.5t68.5 -181.5q0 -110 -72.5 -178.5t-185.5 -68.5q-124 0 -202 87t-78 250q0 130 42.5 230.5t135.5 161.5t226 61q22 0 22 -21l1 -121q0 -9 -7 -15.5t-16 -6.5q-88 1 -140 -45.5t-56 -105.5q33 22 79 22zM320 158q35 0 59.5 23.5t24.5 57.5
q0 35 -24 58t-60 23q-35 0 -59.5 -23t-24.5 -57q0 -35 24 -58.5t60 -23.5z" />
    <glyph glyph-name="seven" unicode="7" horiz-adv-x="587" 
d="M557 761v-34q0 -7 -4 -15l-286 -693q-8 -19 -27 -19h-140q-9 0 -12 11t0 18l250 587h-287q-8 0 -14.5 6.5t-6.5 13.5v123q0 9 6.5 15t14.5 6h487q19 0 19 -19z" />
    <glyph glyph-name="eight" unicode="8" horiz-adv-x="601" 
d="M168 405l1 -3q-17 -8 -35.5 -20.5t-43 -36t-40 -60t-15.5 -79.5q0 -93 71 -154.5t192 -61.5q124 0 195.5 61t71.5 155q0 135 -134 196l1 4q107 63 107 175q0 90 -68 148t-173 58q-102 0 -168.5 -58t-66.5 -148q0 -63 31.5 -108t73.5 -68zM370 567q0 -27 -19.5 -45.5
t-49.5 -18.5t-50 18.5t-20 45.5t20 46t50 19t49.5 -19t19.5 -46zM301 149q-35 0 -57.5 20.5t-22.5 51.5t22.5 52t57.5 21t57 -21t22 -52t-22 -51.5t-57 -20.5z" />
    <glyph glyph-name="nine" unicode="9" 
d="M286 290q-114 0 -182.5 68.5t-68.5 181.5q0 110 72.5 178.5t185.5 68.5q124 0 202 -87t78 -250q0 -130 -42.5 -230.5t-135.5 -161.5t-226 -61q-22 0 -22 21l-1 121q0 9 7 15.5t16 6.5q88 -1 140 45t57 106q-33 -22 -80 -22zM299 619q-35 0 -59.5 -23.5t-24.5 -57.5
q0 -35 23.5 -58t59.5 -23q35 0 59.5 23t24.5 57q0 35 -24 58.5t-59 23.5z" />
    <glyph glyph-name="A" unicode="A" horiz-adv-x="839" 
d="M482 764l334 -737q6 -13 0.5 -20t-15.5 -7h-158q-14 0 -25 25l-27 62h-342l-28 -62q-11 -25 -24 -25h-159q-10 0 -15.5 7t0.5 20l334 737q9 16 22 16h81q13 0 22 -16zM420 473l-104 -235h208z" />
    <glyph glyph-name="B" unicode="B" horiz-adv-x="711" 
d="M535 421q131 -70 131 -199q0 -96 -72 -159t-173 -63h-331q-8 0 -14 5.5t-6 14.5v741q0 19 19 19h309q101 0 162.5 -57.5t61.5 -141.5q0 -102 -87 -160zM437 539q0 32 -21 52.5t-59 20.5h-100v-146h100q38 0 59 20.5t21 52.5zM257 168h125q40 0 62 22t22 54q0 31 -22 53
t-62 22h-125v-151z" />
    <glyph glyph-name="C" unicode="C" horiz-adv-x="790" 
d="M445 -7q-174 0 -289.5 112.5t-115.5 284.5t115.5 284.5t289.5 112.5t297 -123q14 -14 0 -27l-111 -99q-14 -11 -27 1q-68 66 -156 66q-93 0 -154.5 -62t-61.5 -153t61.5 -153t154.5 -62q88 0 156 66q13 12 27 1l111 -99q14 -13 0 -27q-123 -123 -297 -123z" />
    <glyph glyph-name="D" unicode="D" horiz-adv-x="841" 
d="M89 780h290q191 0 301.5 -111.5t110.5 -278.5q0 -166 -110.5 -278t-299.5 -112h-291q-8 0 -14 5.5t-6 14.5v741q0 19 19 19zM257 168h124q105 0 161.5 60t56.5 162t-56.5 162t-161.5 60h-124v-444z" />
    <glyph glyph-name="E" unicode="E" horiz-adv-x="628" 
d="M257 168h326q8 0 14 -5.5t6 -13.5v-129q0 -9 -6 -14.5t-14 -5.5h-494q-8 0 -13.5 6t-5.5 14v741q0 19 19 19h483q8 0 14 -5.5t6 -13.5v-129q0 -9 -6 -14.5t-14 -5.5h-315v-133h235q8 0 14 -5.5t6 -13.5v-129q0 -20 -20 -20h-235v-143z" />
    <glyph glyph-name="F" unicode="F" 
d="M572 780q8 0 14 -5.5t6 -13.5v-129q0 -20 -20 -20h-315v-133h235q8 0 14 -5.5t6 -13.5v-129q0 -20 -20 -20h-235v-291q0 -8 -5.5 -14t-13.5 -6h-149q-8 0 -13.5 6t-5.5 14v741q0 19 19 19h483z" />
    <glyph glyph-name="G" unicode="G" horiz-adv-x="806" 
d="M456 460h275q19 0 19 -19v-313q-59 -66 -137.5 -100.5t-162.5 -34.5q-178 0 -294 112.5t-116 284.5t115.5 284.5t289.5 112.5t297 -123q14 -14 0 -27l-111 -99q-14 -11 -27 1q-68 66 -156 66q-94 0 -155 -62t-61 -153t62 -153t160 -62q76 0 136 40v83h-134q-19 0 -19 18
v125q0 19 19 19z" />
    <glyph glyph-name="H" unicode="H" horiz-adv-x="829" 
d="M591 780h148q8 0 14 -5.5t6 -13.5v-741q0 -8 -5.5 -14t-13.5 -6h-148q-20 0 -20 20v291h-315v-291q0 -8 -5.5 -14t-13.5 -6h-148q-8 0 -14 5.5t-6 14.5v741q0 19 19 19h148q8 0 14 -5.5t6 -13.5v-282h315v282q0 19 19 19z" />
    <glyph glyph-name="I" unicode="I" horiz-adv-x="328" 
d="M238 0h-148q-8 0 -14 5.5t-6 14.5v741q0 19 19 19h148q8 0 14 -5.5t6 -13.5v-741q0 -8 -5.5 -14t-13.5 -6z" />
    <glyph glyph-name="J" unicode="J" horiz-adv-x="354" 
d="M116 780h148q8 0 14 -5.5t6 -13.5v-762q0 -96 -48 -158.5t-129 -89.5q-18 -7 -26 7l-73 136q-11 18 9 25q33 11 56.5 34.5t23.5 54.5v753q0 19 19 19z" />
    <glyph glyph-name="K" unicode="K" horiz-adv-x="771" 
d="M419 393l323 -347q13 -15 7 -30.5t-26 -15.5h-151q-14 0 -23 10l-292 319v-309q0 -8 -5.5 -14t-13.5 -6h-148q-8 0 -14 5.5t-6 14.5v741q0 19 19 19h148q8 0 14 -5.5t6 -13.5v-300l266 308q9 11 23 11h156q18 0 24.5 -14t-5.5 -28z" />
    <glyph glyph-name="L" unicode="L" horiz-adv-x="610" 
d="M257 168h289q19 0 19 -19v-129q0 -8 -5.5 -14t-13.5 -6h-456q-8 0 -14 5.5t-6 14.5v741q0 19 19 19h148q8 0 14 -5.5t6 -13.5v-593z" />
    <glyph glyph-name="M" unicode="M" horiz-adv-x="1055" 
d="M823 780h143q8 0 13.5 -5.5t5.5 -13.5v-741q0 -8 -5.5 -14t-13.5 -6h-148q-20 0 -20 20v406l-244 -402q-8 -14 -23 -14h-7q-15 0 -23 14l-244 401v-405q0 -8 -5.5 -14t-13.5 -6h-148q-8 0 -14 5.5t-6 14.5v741q0 8 5.5 13.5t13.5 5.5h143q14 0 22 -13l274 -450l273 450
q8 13 22 13z" />
    <glyph glyph-name="N" unicode="N" horiz-adv-x="845" 
d="M607 780h148q8 0 14 -5.5t6 -14.5v-741q0 -8 -5.5 -13.5t-13.5 -5.5h-146q-20 0 -34 18l-319 463v-461q0 -8 -5.5 -14t-13.5 -6h-148q-8 0 -14 5.5t-6 14.5v741q0 8 5.5 13.5t13.5 5.5h146q22 0 34 -18l319 -444v442q0 8 5.5 14t13.5 6z" />
    <glyph glyph-name="O" unicode="O" horiz-adv-x="888" 
d="M444 -7q-174 0 -289 115t-115 282t115 282t289 115t288.5 -115t114.5 -282t-114.5 -282t-288.5 -115zM444 175q92 0 152 61.5t60 153.5t-60 154t-152 61t-152 -62.5t-60 -152.5q0 -92 60 -153.5t152 -61.5z" />
    <glyph glyph-name="P" unicode="P" horiz-adv-x="725" 
d="M413 780q132 0 207 -82.5t75 -197.5q0 -116 -74.5 -198t-207.5 -82h-156v-200q0 -8 -5.5 -14t-13.5 -6h-148q-8 0 -14 5.5t-6 14.5v741q0 19 19 19h324zM257 388h151q46 0 73 31t27 81t-26.5 81t-73.5 31h-151v-224z" />
    <glyph glyph-name="Q" unicode="Q" horiz-adv-x="888" 
d="M740 116l107 -118q17 -19 -4 -40l-91 -85q-21 -19 -40 5l-127 138q-66 -23 -141 -23q-174 0 -289 115t-115 282t115 282t289 115t288.5 -115t114.5 -282q0 -161 -107 -274zM232 390q0 -92 60 -153.5t152 -61.5t152 61.5t60 153.5t-60 154t-152 61t-152 -62.5t-60 -152.5z
" />
    <glyph glyph-name="R" unicode="R" horiz-adv-x="739" 
d="M561 256l137 -222q8 -14 3 -24t-22 -10h-134q-24 0 -34 19l-123 201h-131v-200q0 -8 -5.5 -14t-13.5 -6h-148q-8 0 -14 5.5t-6 14.5v741q0 19 19 19h324q132 0 207 -82.5t75 -197.5q0 -77 -34.5 -142.5t-99.5 -101.5zM408 612h-151v-224h151q46 0 73 31t27 81t-26.5 81
t-73.5 31z" />
    <glyph glyph-name="S" unicode="S" horiz-adv-x="631" 
d="M47 139l73 100q7 11 20 12t19 -6q1 -1 9 -7.5t10.5 -9t11.5 -9.5t14 -10t14.5 -9.5t17 -9.5t18 -7.5t19.5 -6.5t20.5 -3.5t22.5 -1.5q38 0 60.5 16t22.5 42q0 21 -16 35t-51 31l-69 34.5t-58 31t-54 33.5t-39.5 33.5t-33.5 39.5t-17 42t-8 51q0 94 73 160.5t195 66.5
q19 0 38 -2t35 -5t32.5 -8t28.5 -9.5t25.5 -11.5t21.5 -11.5t19 -11.5t15.5 -10.5t13 -9.5t9.5 -7q20 -16 6 -36l-75 -98q-21 -29 -43 -13q-85 55 -137 55q-66 0 -66 -47q0 -20 15 -34.5t54 -31.5q135 -65 179 -97q98 -71 98 -172q0 -102 -77 -168t-199 -66q-146 0 -259 107
q-4 3 -5 4q-18 14 -3 35z" />
    <glyph glyph-name="T" unicode="T" horiz-adv-x="628" 
d="M579 780q19 0 19 -19v-129q0 -8 -5.5 -14t-13.5 -6h-176v-592q0 -8 -5.5 -14t-13.5 -6h-148q-8 0 -14 5.5t-6 14.5v592h-166q-8 0 -14 5.5t-6 13.5v129q0 9 6 14.5t14 5.5h529z" />
    <glyph glyph-name="U" unicode="U" horiz-adv-x="777" 
d="M544 780h149q19 0 19 -19v-472q0 -128 -86 -212t-237 -84q-152 0 -238 84t-86 212v472q0 19 19 19h149q19 0 19 -19v-442q0 -65 33.5 -106.5t103.5 -41.5q69 0 102.5 41.5t33.5 106.5v442q0 19 19 19z" />
    <glyph glyph-name="V" unicode="V" horiz-adv-x="839" 
d="M460 0h-81q-13 0 -22 16l-334 737q-6 13 -0.5 20t15.5 7h159q13 0 24 -25l199 -448l198 448q11 25 25 25h158q10 0 15.5 -7t-0.5 -20l-334 -737q-9 -16 -22 -16z" />
    <glyph glyph-name="W" unicode="W" horiz-adv-x="1225" 
d="M396 0h-113q-17 0 -22 16l-239 737q-7 27 15 27h157q18 0 25 -25l127 -446l167 446q9 25 25 25h149q16 0 25 -25l167 -446l128 446q7 25 25 25h156q10 0 14.5 -7t0.5 -20l-238 -737q-5 -16 -22 -16h-113q-15 0 -22 16l-195 525l-195 -525q-7 -16 -22 -16z" />
    <glyph glyph-name="X" unicode="X" horiz-adv-x="758" 
d="M547 780h178q9 0 12 -6t-2 -13l-252 -375l247 -366q4 -7 1 -13.5t-11 -6.5h-179q-3 0 -5.5 1t-4.5 3.5t-3.5 4t-3.5 5.5l-3 6l-142 211l-142 -211l-3 -6t-3.5 -5.5t-3.5 -4t-5 -3.5t-6 -1h-177q-8 0 -11 6.5t1 13.5l246 366l-252 375q-5 7 -2 13t12 6h177q4 0 6.5 -2
t4 -4t4 -6.5t4.5 -6.5l149 -221l149 221q2 2 4.5 7t4 6.5t4.5 3.5t7 2z" />
    <glyph glyph-name="Y" unicode="Y" horiz-adv-x="761" 
d="M569 780h152q30 0 15 -28l-262 -439v-294q0 -19 -19 -19h-149q-19 0 -19 19v294l-262 439q-15 28 15 28h152q23 0 34 -20l154 -266l155 266q10 20 34 20z" />
    <glyph glyph-name="Z" unicode="Z" horiz-adv-x="644" 
d="M590 0h-548q-17 0 -17 15v20q0 13 10 29l318 548h-299q-19 0 -19 19v129q0 8 5.5 14t13.5 6h548q16 0 16 -15v-20q0 -13 -9 -29l-319 -548h300q19 0 19 -19v-129q0 -8 -5.5 -14t-13.5 -6z" />
    <glyph glyph-name="a" unicode="a" horiz-adv-x="555" 
d="M192 -8q-78 0 -120 39t-42 108q0 81 65.5 125t222.5 57q0 29 -17.5 39t-49.5 10q-63 0 -122 -34q-20 -9 -29 11l-32 85q-6 21 14 32q96 53 205 53q92 0 153.5 -41.5t59.5 -122.5q-6 -217 10 -330q1 -9 -4.5 -16t-15.5 -7h-106q-11 0 -25 16.5t-24 39.5q-57 -64 -143 -64z
M237 123q44 0 79 37v49q-62 -3 -89.5 -15.5t-27.5 -37.5q0 -33 38 -33z" />
    <glyph glyph-name="b" unicode="b" horiz-adv-x="657" 
d="M394 517q99 0 166 -73.5t67 -189.5t-66 -189t-160 -73q-91 0 -150 67v-40q0 -19 -19 -19h-144q-19 0 -19 19v637q0 36 -6.5 67t-6.5 37q0 20 19 20h119q57 0 57 -56v-270q57 63 143 63zM354 146q48 0 76 29.5t28 78.5t-28 79t-76 30q-47 0 -75 -30.5t-28 -78.5t28 -78
t75 -30z" />
    <glyph glyph-name="c" unicode="c" horiz-adv-x="516" 
d="M300 -8q-110 0 -190 74t-80 189q0 114 80.5 188t189.5 74q102 0 179 -71q12 -12 2 -28l-61 -80q-14 -17 -37 -1q-35 26 -74 26q-50 0 -81 -31t-31 -77q0 -47 31 -78t81 -31q37 0 74 26q24 16 37 -1l61 -80q12 -15 -2 -28q-76 -71 -179 -71z" />
    <glyph glyph-name="d" unicode="d" horiz-adv-x="653" 
d="M412 780h119q57 0 57 -56v-705q0 -19 -19 -19h-144q-19 0 -19 19v40q-59 -67 -150 -67q-94 0 -160 73t-66 189t67 189.5t166 73.5q86 0 143 -63v202q0 36 -6.5 67t-6.5 37q0 20 19 20zM303 146q47 0 75 30t28 78t-28 78.5t-75 30.5q-48 0 -76 -30t-28 -79t28 -78.5
t76 -29.5z" />
    <glyph glyph-name="e" unicode="e" horiz-adv-x="574" 
d="M544 283q0 -94 -119 -94h-207q34 -53 126 -53q50 0 88 19q20 9 33 -8l30 -41q11 -16 -4 -36q-60 -78 -184 -78q-122 0 -199.5 71.5t-77.5 189.5q0 114 72 189t189 75t185 -70t68 -164zM291 369q-59 0 -80 -60h158q-19 60 -78 60z" />
    <glyph glyph-name="f" unicode="f" horiz-adv-x="435" 
d="M457 759q14 -13 5 -30l-50 -89q-10 -18 -26 -10q-24 13 -46 13q-23 0 -40.5 -15t-17.5 -46v-72h96q5 0 9.5 -4t4.5 -10v-135q0 -6 -4.5 -10.5t-9.5 -4.5h-96v-327q0 -19 -19 -19h-144q-19 0 -19 19v327h-55q-6 0 -10.5 4.5t-4.5 10.5v135q0 14 15 14h55v95
q0 95 56.5 147.5t145.5 52.5q98 0 155 -46z" />
    <glyph glyph-name="g" unicode="g" horiz-adv-x="575" 
d="M227 46l137 -21q104 -15 150 -49.5t46 -103.5q0 -67 -40.5 -111.5t-101.5 -62t-139 -16.5q-113 2 -185.5 41.5t-72.5 109.5q0 89 115 112q-113 27 -113 102q0 44 31.5 70t71.5 23q-18 17 -27.5 27t-26 46t-17.5 78q-2 96 64.5 161t175.5 65q19 0 90 -8.5t140 -2.5
q8 1 13.5 -4.5t5.5 -14.5l-6 -75q-4 -14 -59 -18q51 -53 51 -126q0 -91 -66 -148.5t-165 -56.5q-37 0 -91 14q-37 11 -37 -10q0 -13 56 -21zM291 364q-31 0 -51.5 -20t-20.5 -53t20.5 -53t52.5 -20q31 0 51.5 20.5t20.5 52.5t-21 52.5t-52 20.5zM296 -167q28 0 49.5 10
t21.5 29q0 26 -30 31l-79 16q-27 5 -47 -4.5t-20 -31.5q0 -50 105 -50z" />
    <glyph glyph-name="h" unicode="h" horiz-adv-x="642" 
d="M590 25q2 -10 -1.5 -17.5t-10.5 -7.5h-130q-22 0 -34.5 14t-12.5 36v232q0 35 -19.5 55.5t-51.5 20.5q-25 0 -46.5 -14.5t-32.5 -37.5v-287q0 -19 -19 -19h-144q-19 0 -19 19v637q0 36 -6.5 67t-6.5 37q0 20 19 20h119q57 0 57 -56v-281q61 74 151 74q80 0 130.5 -51
t50.5 -143v-229q0 -27 7 -69z" />
    <glyph glyph-name="i" unicode="i" horiz-adv-x="304" 
d="M152 617q-38 0 -65 26.5t-27 65.5q0 38 27 64.5t65 26.5t64.5 -26.5t26.5 -64.5q0 -39 -26.5 -65.5t-64.5 -26.5z" />
    <glyph glyph-name="j" unicode="j" horiz-adv-x="308" 
d="M156 617q-38 0 -65 26.5t-27 65.5q0 38 27 64.5t65 26.5t64.5 -26.5t26.5 -64.5q0 -39 -26.5 -65.5t-64.5 -26.5zM93 -231q-18 -7 -25 8l-73 131q-9 19 9 29q61 38 61 83v471q0 19 19 19h143q8 0 14 -5.5t6 -13.5v-492q0 -90 -39.5 -143t-114.5 -87z" />
    <glyph glyph-name="k" unicode="k" horiz-adv-x="636" 
d="M401 269l207 -226q12 -14 5 -28.5t-25 -14.5h-147q-14 0 -25 12l-165 184v-177q0 -19 -19 -19h-144q-19 0 -19 19v637q0 36 -6.5 67t-6.5 37q0 20 19 20h119q57 0 57 -56v-383l143 157q12 12 26 12h138q20 0 26 -15.5t-7 -30.5z" />
    <glyph glyph-name="l" unicode="l" horiz-adv-x="316" 
d="M232 0h-144q-19 0 -19 19v637q0 36 -6.5 67t-6.5 37q0 20 19 20h119q57 0 57 -56v-705q0 -19 -19 -19z" />
    <glyph glyph-name="m" unicode="m" horiz-adv-x="962" 
d="M911 25q2 -10 -1.5 -17.5t-11.5 -7.5h-129q-23 0 -35.5 14t-12.5 36v227q0 35 -19 55.5t-51 20.5q-26 0 -47.5 -14.5t-31.5 -39.5v-205q0 -33 8 -69q2 -10 -1.5 -17.5t-11.5 -7.5h-129q-23 0 -35.5 14t-12.5 36v227q0 35 -18.5 55.5t-51.5 20.5q-25 0 -46 -13.5
t-31 -37.5v-282q0 -8 -5.5 -14t-13.5 -6h-145q-8 0 -13.5 6t-5.5 14v471q0 8 5.5 13.5t12.5 5.5h146q19 0 19 -19v-47q62 73 152 73q54 0 96 -25.5t63 -74.5q64 100 170 100q79 0 129 -51t50 -143v-229q0 -33 8 -69z" />
    <glyph glyph-name="n" unicode="n" horiz-adv-x="633" 
d="M582 25q2 -10 -1.5 -17.5t-10.5 -7.5h-130q-23 0 -35.5 14t-12.5 36v232q0 35 -19 55.5t-52 20.5q-25 0 -46 -14t-32 -38v-286q0 -8 -5.5 -14t-13.5 -6h-145q-8 0 -13.5 6t-5.5 14v471q0 8 5.5 13.5t12.5 5.5h146q19 0 19 -19v-48q61 74 151 74q80 0 130.5 -51t50.5 -143
v-229q0 -38 7 -69z" />
    <glyph glyph-name="o" unicode="o" horiz-adv-x="603" 
d="M302 -8q-116 0 -194 73t-78 189q0 117 78 190t194 73q115 0 193 -73t78 -190q0 -116 -78 -189t-193 -73zM302 146q46 0 75 30.5t29 77.5q0 48 -29 78.5t-75 30.5t-75.5 -31t-29.5 -78t29.5 -77.5t75.5 -30.5z" />
    <glyph glyph-name="p" unicode="p" horiz-adv-x="647" 
d="M384 517q98 0 165 -73.5t67 -189.5t-66 -189t-159 -73q-91 0 -150 67v-230q0 -29 -29 -29h-125q-29 0 -29 29v575q0 26 -12 80q-2 11 3 18.5t14 7.5h121q57 0 57 -56q57 63 143 63zM343 146q49 0 77 29.5t28 78.5t-28 79t-77 30q-46 0 -74 -30.5t-28 -78.5t28 -78t74 -30
z" />
    <glyph glyph-name="q" unicode="q" horiz-adv-x="652" 
d="M600 -174q2 -11 -2.5 -18.5t-14.5 -7.5h-120q-57 0 -57 56v203q-59 -67 -150 -67q-94 0 -160 73t-66 189t67 189.5t166 73.5q86 0 143 -63v27q0 29 29 29h125q28 0 28 -29v-575q0 -17 2 -32t5.5 -29.5t4.5 -18.5zM303 146q47 0 75 30t28 78t-28 78.5t-75 30.5
q-48 0 -76 -30t-28 -79t28 -78.5t76 -29.5z" />
    <glyph glyph-name="r" unicode="r" horiz-adv-x="491" 
d="M463 485q19 -16 8 -35l-63 -103q-4 -8 -12 -9.5t-15 2.5q-38 19 -61 19q-56 0 -77 -52v-287q0 -8 -5.5 -14t-13.5 -6h-145q-8 0 -13.5 6t-5.5 14v471q0 8 5.5 13.5t12.5 5.5h146q19 0 19 -19v-44q54 70 130 70q54 0 90 -32z" />
    <glyph glyph-name="s" unicode="s" horiz-adv-x="483" 
d="M29 77l47 83q11 19 32 9q19 -10 60.5 -22t76.5 -12t35 19q0 11 -13 17t-54 19q-11 3 -17 5q-159 46 -160 162q-1 71 53 115.5t155 44.5q90 0 174 -50q19 -12 12 -26l-55 -90q-10 -16 -29 -7q-49 26 -106 26q-41 0 -41 -19q0 -9 11.5 -14.5t41.5 -13.5q9 -3 14 -4
q98 -26 142 -64.5t44 -100.5q0 -78 -59.5 -120t-152.5 -42q-117 0 -207 60q-13 9 -4 25z" />
    <glyph glyph-name="t" unicode="t" horiz-adv-x="445" 
d="M282 -8q-84 0 -136.5 52t-52.5 145v157h-54q-7 0 -13 6t-6 14v33q0 17 9 27q101 102 174 219q14 20 29 20h27q8 0 13.5 -6t5.5 -14v-135h93q20 0 20 -19v-127q0 -7 -6 -12.5t-14 -5.5h-61q-19 0 -35 4v-143q0 -23 12 -39t33 -16q16 0 34 9q16 6 24 -7l49 -96
q6 -11 -7 -22q-52 -44 -138 -44z" />
    <glyph glyph-name="u" unicode="u" horiz-adv-x="634" 
d="M410 510h144q8 0 13.5 -6t5.5 -14v-471q0 -8 -5.5 -13.5t-12.5 -5.5h-145q-19 0 -19 19v48q-59 -74 -151 -74q-80 0 -130.5 51t-50.5 143v229q0 33 -8 69q-4 25 13 25h129q23 0 35.5 -14t12.5 -36v-232q0 -35 19 -55.5t52 -20.5q25 0 46.5 14.5t32.5 37.5v286q0 8 5.5 14
t13.5 6z" />
    <glyph glyph-name="v" unicode="v" horiz-adv-x="587" 
d="M361 0h-135q-14 0 -22 19l-183 471q-5 20 14 20h144q12 0 19 -20l93 -261h5l93 261q7 20 19 20h144q21 0 14 -20l-183 -471q-8 -19 -22 -19z" />
    <glyph glyph-name="w" unicode="w" horiz-adv-x="889" 
d="M323 0h-122q-16 0 -22 19l-158 471q-5 20 13 20h142q15 0 19 -20l71 -261h6l92 261q7 20 19 20h123q14 0 19 -20l92 -261h6l71 261q5 20 19 20h142q20 0 13 -20l-158 -471q-6 -19 -22 -19h-121q-14 0 -22 19l-98 265h-4l-98 -265q-6 -19 -22 -19z" />
    <glyph glyph-name="x" unicode="x" horiz-adv-x="571" 
d="M382 257l154 -225q7 -10 2 -21t-16 -11h-151q-14 0 -22 14l-64 108l-64 -108q-8 -14 -22 -14h-152q-10 0 -15 11t2 21l155 225l-153 222q-7 10 -2 20.5t15 10.5h151q15 0 23 -14l62 -107l62 107q8 14 23 14h151q11 0 15.5 -10.5t-1.5 -20.5z" />
    <glyph glyph-name="y" unicode="y" horiz-adv-x="585" 
d="M406 510h145q20 0 13 -20l-262 -670q-7 -20 -19 -20h-144q-21 0 -14 20l79 200l-183 470q-5 20 14 20h144q12 0 19 -20l92 -261h5l92 261q7 20 19 20z" />
    <glyph glyph-name="z" unicode="z" horiz-adv-x="500" 
d="M469 463l-193 -299h166q8 0 13.5 -5.5t5.5 -13.5v-125q0 -8 -5.5 -14t-13.5 -6h-392q-7 0 -13.5 6t-6.5 13v28l196 299h-163q-8 0 -13.5 5.5t-5.5 13.5v125q0 8 5.5 14t13.5 6h387q7 0 13 -6t6 -13v-28z" />
    <glyph glyph-name="AE" unicode="&#xc6;" horiz-adv-x="1115" 
d="M744 168h325q8 0 14 -5.5t6 -13.5v-129q0 -20 -20 -20h-493q-8 0 -13.5 6t-5.5 14v73h-271l-50 -81q-8 -12 -21 -12h-179q-10 0 -14 6t1 16l471 741q10 17 21 17h543q8 0 14.5 -5.5t6.5 -13.5v-129q0 -20 -21 -20h-314v-133h235q8 0 14 -5.5t6 -13.5v-129q0 -20 -20 -20
h-235v-143zM557 534l-175 -285h175v285z" />
    <glyph glyph-name="germandbls" unicode="&#xdf;" horiz-adv-x="672" 
d="M503 407v-3q123 -46 123 -187q0 -101 -62 -159t-162 -58h-55q-23 0 -23 19v114q0 19 23 19h10q90 0 90 84q0 43 -21.5 63t-68.5 20h-14q-19 0 -19 20v103q0 19 19 19h14q39 0 55.5 22.5t16.5 51.5q0 43 -26 65.5t-68 22.5q-45 0 -73.5 -24t-28.5 -69l-1 -510
q0 -8 -5.5 -14t-13.5 -6h-143q-20 0 -20 20l1 508q0 126 74.5 192.5t203.5 66.5q121 0 193 -55t72 -155q0 -25 -2.5 -43.5t-10.5 -43.5t-28 -46t-50 -37z" />
    <glyph glyph-name="ae" unicode="&#xe6;" horiz-adv-x="871" 
d="M841 283q0 -94 -119 -94h-207q34 -53 126 -53q50 0 88 19q21 9 33 -8l30 -41q11 -16 -4 -36q-60 -78 -184 -78q-131 0 -208 80q-34 -40 -93.5 -60t-110.5 -20q-78 0 -120 39t-42 108q0 81 65.5 125t222.5 57q0 29 -17.5 39t-49.5 10q-63 0 -122 -34q-20 -9 -29 11l-32 85
q-6 21 14 32q96 53 205 53q99 0 138 -52q68 52 163 52q117 0 185 -70t68 -164zM588 369q-59 0 -80 -60h158q-19 60 -78 60zM242 123q55 0 97 47q-6 18 -9 39q-72 -4 -101.5 -16t-29.5 -37q0 -33 43 -33z" />
    <glyph glyph-name="OE" unicode="&#x152;" horiz-adv-x="1218" 
d="M847 168h326q8 0 14 -5.5t6 -13.5v-129q0 -9 -6 -14.5t-14 -5.5h-494q-8 0 -13.5 6t-5.5 14v31q-96 -58 -216 -58q-174 0 -289 115t-115 282t115 282t289 115q120 0 216 -58v32q0 19 19 19h483q8 0 14 -5.5t6 -13.5v-129q0 -9 -6 -14.5t-14 -5.5h-315v-133h235
q8 0 14 -5.5t6 -13.5v-129q0 -20 -20 -20h-235v-143zM444 175q92 0 152 61.5t60 153.5t-60 154t-152 61t-152 -62.5t-60 -152.5q0 -92 60 -153.5t152 -61.5z" />
    <glyph glyph-name="oe" unicode="&#x153;" horiz-adv-x="950" 
d="M920 283q0 -94 -119 -94h-207q34 -53 126 -53q50 0 88 19q21 9 33 -8l30 -41q12 -17 -4 -36q-60 -78 -184 -78q-119 0 -194 67q-76 -67 -187 -67q-116 0 -194 73t-78 189q0 117 78 190t194 73q110 0 185 -66q72 66 180 66q117 0 185 -70t68 -164zM667 369q-59 0 -80 -60
h158q-19 60 -78 60zM302 146q46 0 75 30.5t29 77.5q0 48 -29 78.5t-75 30.5t-75.5 -31t-29.5 -78t29.5 -77.5t75.5 -30.5z" />
    <glyph glyph-name="W.ss01" horiz-adv-x="1147" 
d="M947 780h157q10 0 15 -7t0 -20l-372 -741q-11 -20 -22 -20h-12q-11 0 -22 20l-114 226l-111 -226q-11 -20 -22 -20h-12q-11 0 -22 20l-381 741q-6 13 -0.5 20t15.5 7h157q13 0 25 -25l212 -414l42 89l-163 323q-6 13 -0.5 20t15.5 7h157q13 0 25 -25l61 -124l59 124
q11 25 25 25h157q10 0 15 -7t0 -20l-158 -320l46 -92l203 414q10 25 25 25z" />
    </font>
</defs>
</svg>
